<svg width="22" height="18" viewBox="0 0 22 18" fill="none" xmlns="http://www.w3.org/2000/svg">
<path d="M14.8199 7.72998C14.6699 7.62998 14.66 7.42004 14.78 7.29004C15.54 6.40004 16.01 5.26 16.01 4C16.01 3.63 15.97 3.27004 15.89 2.92004C15.89 2.92004 15.87 2.84006 15.87 2.81006C15.87 2.65006 15.996 2.51696 16.156 2.50696C16.166 2.50696 16.29 2.5 16.34 2.5C18.21 2.5 19.67 4.33004 19.01 6.29004C18.72 7.16004 17.98 7.83995 17.1 8.06995C16.25 8.28995 15.4499 8.12998 14.8199 7.72998ZM17.67 9.17004C17.48 9.17004 17.36 9.29997 17.36 9.46997C17.36 9.53997 17.416 9.62994 17.47 9.68994C18.66 10.9199 19.22 12.64 19.22 14.35V15.24C19.22 15.38 19.34 15.5 19.49 15.5H21C21.28 15.5 21.5 15.28 21.5 15V13.01C21.5 11.24 20.5 9.17004 17.67 9.17004ZM4.90002 8.06995C5.75002 8.28995 6.55005 8.12998 7.18005 7.72998C7.33005 7.62998 7.33997 7.42004 7.21997 7.29004C6.45997 6.40004 5.98999 5.26 5.98999 4C5.98999 3.63 6.02999 3.27004 6.10999 2.92004C6.10999 2.92004 6.13 2.84006 6.13 2.81006C6.13 2.65006 6.00399 2.51696 5.84399 2.50696C5.83399 2.50696 5.71003 2.5 5.66003 2.5C3.79003 2.5 2.32999 4.33004 2.98999 6.29004C3.27999 7.16004 4.02002 7.83995 4.90002 8.06995ZM4.64001 9.46997C4.64001 9.29997 4.51996 9.17004 4.32996 9.17004C1.49996 9.17004 0.5 11.24 0.5 13.01V15C0.5 15.28 0.72 15.5 1 15.5H2.51001C2.66001 15.5 2.78003 15.38 2.78003 15.24V14.35C2.78003 12.64 3.34003 10.9199 4.53003 9.68994C4.58403 9.62994 4.64001 9.53997 4.64001 9.46997ZM11.0081 7.5C12.9381 7.5 14.5081 5.93 14.5081 4C14.5081 2.07 12.9381 0.5 11.0081 0.5C9.07806 0.5 7.50806 2.07 7.50806 4C7.50806 5.93 9.07806 7.5 11.0081 7.5ZM12.777 9.38904H9.22205C5.57205 9.38904 4.27698 12.061 4.27698 14.35V17C4.27698 17.276 4.50098 17.5 4.77698 17.5H17.222C17.498 17.5 17.722 17.276 17.722 17V14.35C17.723 12.061 16.428 9.38904 12.777 9.38904Z" fill="#DEE33E"/>
</svg>
