<svg width="16" height="16" viewBox="0 0 16 16" fill="none" xmlns="http://www.w3.org/2000/svg">
<path d="M4.5 8H1.5C0.5 8 0 7.5 0 6.5V1.5C0 0.5 0.5 0 1.5 0H4.5C5.5 0 6 0.5 6 1.5V6.5C6 7.5 5.5 8 4.5 8ZM6 14.5V13.5C6 12.5 5.5 12 4.5 12H1.5C0.5 12 0 12.5 0 13.5V14.5C0 15.5 0.5 16 1.5 16H4.5C5.5 16 6 15.5 6 14.5ZM10 9.5V14.5C10 15.5 10.5 16 11.5 16H14.5C15.5 16 16 15.5 16 14.5V9.5C16 8.5 15.5 8 14.5 8H11.5C10.5 8 10 8.5 10 9.5ZM10 1.5V2.5C10 3.5 10.5 4 11.5 4H14.5C15.5 4 16 3.5 16 2.5V1.5C16 0.5 15.5 0 14.5 0H11.5C10.5 0 10 0.5 10 1.5Z" fill="black"/>
</svg>
