<svg width="18" height="18" viewBox="0 0 18 18" fill="none" xmlns="http://www.w3.org/2000/svg">
<path d="M7.47998 8.15004C7.72998 8.26004 7.99 8.33006 8.25 8.39006V17.9101C8.09 17.8701 7.93003 17.81 7.78003 17.74L1.78003 15.0701C0.700029 14.5901 0 13.52 0 12.33V5.67006C0 5.40006 0.0399854 5.13005 0.109985 4.88005L7.47998 8.15004ZM11.8199 5.92006L3.67004 2.09005L1.78003 2.93004C1.43003 3.08004 1.13 3.30005 0.869995 3.56005L8.07996 6.77004C8.65996 7.03004 9.33004 7.03004 9.92004 6.77004L11.8199 5.92006ZM17.13 3.56005C16.87 3.30005 16.57 3.08004 16.22 2.93004L10.22 0.260059C9.43997 -0.0899414 8.56003 -0.0899414 7.78003 0.260059L5.48999 1.28005L13.64 5.11003L17.13 3.56005ZM17.89 4.88005L14.38 6.44005V8.89006C14.38 9.30006 14.04 9.64006 13.63 9.64006C13.22 9.64006 12.88 9.30006 12.88 8.89006V7.10005L10.52 8.15004C10.27 8.25004 10.01 8.33006 9.75 8.39006V17.9101C9.91 17.8701 10.07 17.81 10.22 17.74L16.22 15.0701C17.3 14.5901 18 13.52 18 12.33V5.67006C18 5.40006 17.96 5.13005 17.89 4.88005Z" fill="#DEE33E"/>
</svg>
