<svg width="22" height="20" viewBox="0 0 22 20" fill="none" xmlns="http://www.w3.org/2000/svg">
<path d="M12.83 7.43103C12.772 7.33903 12.776 7.22305 12.829 7.12805C13.264 6.35205 13.511 5.45602 13.511 4.49902C13.511 4.16702 13.4819 3.843 13.424 3.526C13.405 3.422 13.4369 3.314 13.5179 3.245C14.0729 2.774 14.791 2.49902 15.561 2.49902C17.678 2.49902 19.3281 4.54998 18.6281 6.75098C18.3241 7.70598 17.544 8.48103 16.587 8.78003C15.038 9.26403 13.566 8.60103 12.83 7.43103ZM17.11 10.28H15.1281C14.8621 10.28 14.725 10.603 14.918 10.787C16.338 12.139 17.001 14.088 17.001 16.02V17.2C17.001 17.366 17.135 17.5 17.301 17.5H21.001C21.277 17.5 21.501 17.276 21.501 17V14.6801C21.5 12.6501 20.35 10.28 17.11 10.28ZM8.00903 8.5C10.215 8.5 12.009 6.706 12.009 4.5C12.009 2.294 10.215 0.5 8.00903 0.5C5.80303 0.5 4.00903 2.294 4.00903 4.5C4.00903 6.706 5.80303 8.5 8.00903 8.5ZM10 10.5H6C1.94 10.5 0.5 13.473 0.5 16.019V19C0.5 19.276 0.724 19.5 1 19.5H15C15.276 19.5 15.5 19.276 15.5 19V16.019C15.5 13.473 14.06 10.5 10 10.5Z" fill="#DEE33E"/>
</svg>
