<svg width="18" height="18" viewBox="0 0 18 18" fill="none" xmlns="http://www.w3.org/2000/svg">
<path d="M17.58 3.55996L15.4 5.73996C14.82 6.30996 13.87 6.30998 13.29 5.72998L12.27 4.70996C11.69 4.12996 11.69 3.17995 12.27 2.60995L14.44 0.419981C12.91 -0.190019 11.01 -0.210047 9.23 0.859953C8.51 1.28995 7.9 1.86997 7.47 2.56997C7.44 2.60997 7.41 2.64998 7.39 2.69998C6.61 3.98998 6.4 5.33996 6.58 6.55996C6.65 7.01996 6.49 7.47995 6.16 7.79995L0.839996 13.13C0.279996 13.68 0 14.42 0 15.14C0 15.88 0.279996 16.6 0.839996 17.16C1.95 18.28 3.75999 18.28 4.87 17.16L10.2 11.84C10.52 11.51 10.98 11.35 11.44 11.42C12.66 11.6 14.01 11.39 15.29 10.62C16.05 10.17 16.69 9.52997 17.13 8.77997C18.21 6.99997 18.19 5.08996 17.58 3.55996ZM3.02 16C2.47 16 2.02 15.55 2.02 15C2.02 14.45 2.45999 14 3.00999 14H3.02C3.57 14 4.02 14.45 4.02 15C4.02 15.55 3.57 16 3.02 16Z" fill="#DEE33E"/>
</svg>
